<svg width="143" height="117" viewBox="0 0 143 117" fill="none" xmlns="http://www.w3.org/2000/svg">
<path fill="#FDFDFD" opacity="1.0" stroke="none" d="M163.711182,155.391968 C159.275421,155.391968 155.304184,155.391968 151.110580,155.391968 C151.110580,131.814926 151.110580,108.604591 151.110580,84.334084 C163.371964,84.863190 175.727631,84.340607 187.707016,86.218483 C199.055847,87.997520 205.230606,97.431259 204.667831,108.099869 C204.067642,119.477798 196.876083,127.593201 185.299988,129.275848 C179.764420,130.080475 174.103058,130.019669 168.170319,130.370239 C168.170319,138.454941 168.170319,146.546814 168.170319,154.992035 C166.647903,155.144455 165.411804,155.268219 163.711182,155.391968 z M184.483200,100.895294 C179.164719,99.887581 173.846222,98.879868 168.257690,97.820992 C168.257690,104.859840 168.257690,110.430603 168.257690,116.241592 C171.460144,116.241592 174.424835,116.364098 177.376358,116.218735 C186.401428,115.774261 189.619904,109.534081 184.483200,100.895294 z"/>

<path fill="#FDFDFD" opacity="1.0" stroke="none" d="M110.356010,148.862625 C107.140564,148.932861 104.382439,149.007217 101.624313,149.081589 C101.624313,150.840118 101.624313,152.352783 101.624313,153.935303 C99.048973,153.935303 96.684982,153.935303 94.071854,153.935303 C94.071854,131.357254 94.071854,108.575455 94.071854,85.230110 C105.295021,84.445709 116.250977,84.682739 127.127426,85.643829 C136.567154,86.486115 143.243225,93.664658 144.424973,103.686356 C146.005661,116.796387 138.792618,127.920891 126.546288,130.006866 C121.357246,130.870285 115.911873,130.253036 110.356010,130.480011 C110.356010,136.619492 110.356010,142.435867 110.356010,148.862625 z M109.958160,116.461670 C111.830170,116.461670 113.110146,116.661713 114.373589,116.431625 C119.946579,115.421211 123.376030,110.932793 123.778839,104.950584 C124.168495,99.161209 120.885658,94.654175 116.316582,93.737923 C114.369690,93.356491 112.182533,93.512947 109.958160,93.512947 C109.958160,101.173569 109.958160,108.486450 109.958160,116.461670 z"/>

<path fill="#FDFDFD" opacity="1.0" stroke="none" d="M62.524681,85.424019 C62.524681,98.079338 62.524681,110.323654 62.524681,122.811394 C69.508728,122.811394 75.933197,122.811394 82.674156,122.811394 C82.674156,125.649551 82.674156,128.388245 82.674156,131.499329 C75.974083,131.499329 69.492523,131.499329 62.524799,131.499329 C62.524799,137.741516 62.524799,143.660339 62.524799,150.046249 C65.674271,150.046249 68.561653,150.046249 71.569382,150.046249 C71.569382,152.874588 71.569382,155.607834 71.569382,158.670639 C65.110046,158.670639 58.622246,158.670639 51.594898,158.670639 C51.594898,133.168396 51.594898,108.067802 51.594898,82.471771 C55.162830,83.010544 58.472244,83.516167 62.524681,84.133865 z"/>

<path fill="#FDFDFD" opacity="1.0" stroke="none" d="M196.641129,150.505753 C193.878677,150.505753 191.345993,150.505753 188.813293,150.505753 C188.813293,145.528152 188.813293,140.641922 188.813293,135.431625 C185.010574,135.431625 181.460983,135.431625 177.628494,135.431625 C177.628494,132.521698 177.628494,129.759720 177.628494,126.761734 C181.530975,126.761734 185.121048,126.761734 188.812836,126.761734 C188.812836,122.078484 188.812836,117.692131 188.812836,113.079849 C191.644730,113.079849 194.518448,113.079849 197.762527,113.079849 C197.762527,117.770561 197.762527,122.120049 197.762527,126.834312 C201.846939,126.834312 205.431000,126.834312 209.176773,126.834312 C209.176773,129.787262 209.176773,132.535156 209.176773,135.601074 C205.559372,135.601074 201.968445,135.601074 197.764526,135.601074 C197.764526,140.741440 197.764526,145.539993 197.764526,150.505753 C197.357758,150.561722 196.933029,150.635696 196.641129,150.505753 z"/>
 29.8447C132.544 27.022 136.328 15.6352 130.191 0.252333C130.191 0.252333 120.787 -2.72316 99.4861 11.8311C90.5675 9.37666 80.9828 9.01035 71.5039 9.01035C62.025 9.01035 52.4482 9.37666 43.5022 11.8389C22.2094 -2.72512 12.8089 0.250376 12.8089 0.250376C6.67968 15.6411 10.4681 27.02 11.6179 29.8447C4.39957 37.6468 0 47.6076 0 59.819C0 105.793 29.7784 116.189 71.3374 116.189C112.916 116.189 143 105.795 143 59.819C143 47.6076 138.6 37.6448 131.38 29.8447H131.39ZM71.5078 107.392C41.988 107.392 18.0547 106.009 18.0547 77.4095C18.0547 70.579 21.4161 64.201 27.179 58.9317C36.7774 50.1364 53.0535 54.7848 71.5098 54.7848C89.9798 54.7848 106.232 50.1364 115.841 58.9219C121.609 64.201 124.981 70.5594 124.981 77.4016C124.981 106.011 101.032 107.392 71.5117 107.392H71.5078Z" fill="#FF3333"/>
</svg>
